<?xml version="1.0" encoding="utf-8"?>
<!-- Generator: Adobe Illustrator 25.2.3, SVG Export Plug-In . SVG Version: 6.00 Build 0)  -->
<svg version="1.1" id="Layer_1" xmlns="http://www.w3.org/2000/svg" xmlns:xlink="http://www.w3.org/1999/xlink" x="0px" y="0px"
	 viewBox="0 0 962.16 721.44" style="enable-background:new 0 0 962.16 721.44;" xml:space="preserve">
<style type="text/css">
	.st0{fill:#FFFFFF;}
	.st1{fill:none;}
	.st2{fill:none;stroke:#4DB85D;stroke-width:3;stroke-miterlimit:10;}
</style>
<path class="st0" d="M343.81,200.64"/>
<path class="st1" d="M346.98,52.05c0.41,7.39-2.18,14.77-1.29,22.12c0.82,0.1,1.66,0.03,2.45-0.22c0.13,3.5,1.48,8.67,1.28,12.17
	c-0.18,3.13-0.39,6.59,1.56,9.04"/>
<path class="st2" d="M422.95,246.48c-0.19,6.6,0,13.22,0.55,19.75c0.26,3.03,0.17,8.98,0.08,12.04c-0.05,1.82-0.29,3.61-0.54,5.39
	c-0.49,3.6-0.99,7.2-1.48,10.79c-0.09,0.67-0.19,1.36-0.42,1.9c-0.27,0.63-0.69,1-1.09,1.35c-1.64,1.43-3.28,2.85-4.92,4.28
	c-1.1,0.96-3.67,2.18-4.8,3.03c-0.17,0.13-0.35,0.27-0.46,0.54c-0.12,0.31-0.12,0.71-0.1,1.07c0.17,3.65,1.16,7.17,2.72,9.62
	c0.52,0.81,1.1,1.52,1.52,2.49c0.93,2.16,0.87,5.17,0.49,7.79c-0.38,2.62-1.03,5.15-1.16,7.84c-0.05,1.13,0,2.32,0.34,3.28
	c0.34,0.96,1.04,1.59,1.65,1.22c-1.16,14.21-1.38,29.84-1.04,44.18c0.03,1.28,0.03,2.73-0.51,3.59c-0.49,0.78-1.26,0.79-1.77,1.52
	c-0.51,0.73-0.65,1.97-0.73,3.12c-0.41,5.89-0.28,11.89,0.41,17.71c0.31,2.66,0.74,5.33,0.62,8.03c-0.12,2.7-0.93,5.52-2.38,6.47
	c-0.11,3.86,1.16,11.2,1.32,15.06c0.07,1.68,0.16,3.39,0.55,4.92c0.39,1.54,1.12,2.9,2.06,3.26c1.37,0.53,2.88-1.1,4.15-0.08
	c0.49,0.39,0.87,1.14,1.15,1.94c1.18,3.29,1.04,7.46,0.87,11.32c-2.42,4.54-2.64,15.8-1.96,21.9c0.67,6.09,1.33,13.04-0.83,17.96
	c-1.18,2.69-3.04,4.29-4.2,7c-0.62,1.43-1.01,3.11-1.47,4.72c-1.42,4.98-3.49,9.29-5.54,13.55c-3.31,6.89-6.63,13.78-9.94,20.67
	c-1.19-2.5-3.27-6.64-5.11-7.09c0.7,4.05,0.33,8.62-0.98,12.18c-0.48,1.31-1.08,2.49-1.45,3.9c-0.41,1.58-0.51,3.35-0.6,5.08
	c-0.34,6.43-0.66,13.12,0.67,19.14c0.48,2.16,1.16,4.18,1.69,6.3c1.61,6.37,1.89,13.48,2.15,20.43c0.05,1.3,0.09,2.63-0.13,3.87
	c-0.26,1.43-0.84,2.59-1.41,3.7c-2.2,4.3-4.39,8.59-6.59,12.89"/>
<path class="st1" d="M312.88,319.29c-1.09,1.75,0.01,4.43,2.02,4.91c2.01,0.48,4.2-1.42,4.01-3.47c0.32,3.73,0.65,7.47,0.97,11.2
	c0.95,0.02,1.89,0.04,2.84,0.06c1.82,3.97,0.77,8.59,0.07,12.9c-1.32,8.12-1.28,16.46,0.12,24.57c0.77,4.49,0.27,11.23,1.35,15.66
	c0.21,0.85,0.45,1.7,0.84,2.48c0.66,1.31,1.78,2.5,1.78,3.97"/>
<path class="st1" d="M327.21,395.34c-0.63,4.4,1.31,8.7,2.96,12.82c1.65,4.13,3.05,8.35,4.19,12.64"/>
</svg>
