<svg xmlns="http://www.w3.org/2000/svg" viewBox="0 0 42.15 380.39"><defs><style>.cls-1{fill:none;stroke:#4db85d;stroke-miterlimit:10;stroke-width:3px;}</style></defs><g id="Layer_2" data-name="Layer 2"><g id="Layer_1-2" data-name="Layer 1"><path class="cls-1" d="M39.93,0a175.76,175.76,0,0,0,.55,19.76c.26,3,.17,9,.09,12A50.44,50.44,0,0,1,40,37.23L38.55,48a7.44,7.44,0,0,1-.43,1.9A3.57,3.57,0,0,1,37,51.28l-4.92,4.28c-1.1,1-3.67,2.19-4.79,3a1.13,1.13,0,0,0-.46.54,2.73,2.73,0,0,0-.1,1.08,20.27,20.27,0,0,0,2.72,9.62A16.84,16.84,0,0,1,31,72.32c.93,2.16.87,5.17.49,7.79s-1,5.15-1.16,7.84a8.59,8.59,0,0,0,.34,3.28c.34,1,1,1.59,1.65,1.22a433.7,433.7,0,0,0-1,44.19,7.13,7.13,0,0,1-.51,3.59c-.49.78-1.25.79-1.77,1.52a6.67,6.67,0,0,0-.72,3.11,95.17,95.17,0,0,0,.4,17.71,50.15,50.15,0,0,1,.62,8c-.12,2.7-.93,5.52-2.38,6.47-.11,3.86,1.16,11.21,1.31,15.06a24.46,24.46,0,0,0,.56,4.92c.38,1.54,1.12,2.9,2.05,3.27,1.37.53,2.88-1.1,4.16-.08a4.4,4.4,0,0,1,1.15,1.94c1.18,3.29,1.05,7.46.88,11.32-2.42,4.54-2.64,15.81-2,21.9s1.33,13-.83,18c-1.18,2.69-3,4.29-4.2,7a41.43,41.43,0,0,0-1.47,4.72A84.5,84.5,0,0,1,23,278.63L13.09,299.3c-1.2-2.5-3.27-6.64-5.12-7.09a24.84,24.84,0,0,1-1,12.18c-.48,1.31-1.09,2.49-1.46,3.9a26.06,26.06,0,0,0-.6,5.08c-.33,6.43-.65,13.13.68,19.15.48,2.16,1.16,4.17,1.69,6.3,1.61,6.36,1.9,13.48,2.16,20.43a18.46,18.46,0,0,1-.13,3.87,13,13,0,0,1-1.41,3.7L1.34,379.71"/></g></g></svg>